<?xml version="1.0" standalone="no"?>
<!DOCTYPE svg PUBLIC "-//W3C//DTD SVG 20010904//EN"
 "http://www.w3.org/TR/2001/REC-SVG-20010904/DTD/svg10.dtd">
<svg version="1.0" xmlns="http://www.w3.org/2000/svg"
 width="361.000000pt" height="94.000000pt" viewBox="0 0 361.000000 94.000000"
 preserveAspectRatio="xMidYMid meet">

<g transform="translate(0.000000,94.000000) scale(0.100000,-0.100000)"
fill="#000000" stroke="none">
<path d="M282 657 c-91 -33 -147 -120 -140 -217 7 -96 65 -164 163 -191 103
-28 230 51 253 157 17 76 -5 149 -60 201 -61 59 -141 77 -216 50z m111 -38
c83 -23 134 -99 124 -186 -13 -117 -138 -178 -248 -123 -126 65 -110 257 26
305 49 17 51 17 98 4z"/>
<path d="M620 462 c0 -115 3 -211 6 -215 3 -3 12 -3 20 0 10 4 14 26 14 89 l0
84 44 0 c95 0 146 44 146 124 0 91 -45 126 -160 126 l-70 0 0 -208z m149 153
c47 -24 56 -83 19 -122 -17 -18 -32 -23 -75 -23 l-53 0 0 80 0 80 40 0 c23 0
54 -7 69 -15z"/>
<path d="M912 458 l3 -213 130 0 c123 0 130 1 130 20 0 19 -8 20 -112 23
l-113 3 0 69 0 69 83 3 c73 3 82 5 82 22 0 17 -7 19 -82 17 l-83 -2 0 80 0 81
115 0 c108 0 115 1 115 20 0 19 -7 20 -135 20 l-135 0 2 -212z"/>
<path d="M1230 461 c0 -116 4 -212 8 -215 25 -15 32 16 34 169 l3 160 124
-160 c69 -88 129 -163 135 -167 6 -4 16 -2 23 4 15 12 19 384 4 407 -5 8 -16
11 -25 8 -13 -5 -16 -32 -18 -168 l-3 -162 -129 167 c-71 91 -135 166 -143
166 -10 0 -13 -41 -13 -209z"/>
<path d="M2637 663 c-4 -3 -7 -98 -7 -210 0 -189 1 -204 18 -201 14 3 17 17
20 91 l3 87 78 0 c58 0 80 4 84 14 9 23 -2 26 -85 26 l-78 0 0 80 0 80 108 0
c60 0 111 3 115 6 3 3 3 12 0 20 -4 11 -32 14 -127 14 -68 0 -126 -3 -129 -7z"/>
<path d="M3288 662 l-48 -3 0 -205 0 -204 79 0 c70 0 83 3 110 25 60 51 62
127 5 186 -21 22 -24 30 -15 47 17 32 13 87 -9 115 -25 31 -61 43 -122 39z
m87 -53 c43 -46 9 -110 -61 -113 l-39 -1 -3 69 -3 69 47 -6 c25 -2 52 -11 59
-18z m9 -159 c69 -26 72 -119 6 -152 -19 -10 -54 -18 -77 -18 l-43 0 0 90 0
90 44 0 c25 0 56 -4 70 -10z"/>
<path d="M2942 473 c-83 -219 -82 -216 -61 -220 12 -3 24 18 48 82 l33 86 66
-3 66 -3 31 -80 c20 -51 37 -81 48 -83 9 -2 17 1 17 7 0 28 -150 396 -162 399
-11 2 -35 -52 -86 -185z m117 35 l21 -58 -50 0 c-28 0 -50 4 -50 10 0 23 43
121 50 113 4 -4 17 -34 29 -65z"/>
</g>
</svg>
